HIERARCHY
ROOT Hips
{
	OFFSET -14.64140 90.27770 -84.91600
	CHANNELS 6 Xposition Yposition Zposition Zrotation Xrotation Yrotation
	JOINT Spine
	{
		OFFSET 0.00000 13.20850 -1.60436
		CHANNELS 3 Zrotation Xrotation Yrotation
		JOINT Spine1
		{
			OFFSET 0.00000 8.61716 0.00000
			CHANNELS 3 Zrotation Xrotation Yrotation
			JOINT Spine2
			{
				OFFSET 0.00000 8.61717 0.00000
				CHANNELS 3 Zrotation Xrotation Yrotation
				JOINT Spine3
				{
					OFFSET 0.00000 8.61717 0.00000
					CHANNELS 3 Zrotation Xrotation Yrotation
					JOINT Neck
					{
						OFFSET 0.00000 11.07920 1.10792
						CHANNELS 3 Zrotation Xrotation Yrotation
						JOINT Neck1
						{
							OFFSET 0.00000 7.08032 0.00000
							CHANNELS 3 Zrotation Xrotation Yrotation
							JOINT Head
							{
								OFFSET 0.00000 7.08031 0.00000
								CHANNELS 3 Zrotation Xrotation Yrotation
								End site
								{
									OFFSET 0.00000 0.00000 0.00000
								}
							}
						}
					}
					JOINT RightShoulder
					{
						OFFSET -0.01000 7.91373 5.19711
						CHANNELS 3 Zrotation Xrotation Yrotation
						JOINT RightArm
						{
							OFFSET -18.41580 0.00000 0.00000
							CHANNELS 3 Zrotation Xrotation Yrotation
							JOINT RightForeArm
							{
								OFFSET -29.11090 0.00000 0.00000
								CHANNELS 3 Zrotation Xrotation Yrotation
								JOINT RightHand
								{
									OFFSET -24.65040 0.00000 0.00000
									CHANNELS 3 Zrotation Xrotation Yrotation
									JOINT RightHandThumb1
									{
										OFFSET -5.35114 -0.85590 3.97906
										CHANNELS 3 Zrotation Xrotation Yrotation
										JOINT RightHandThumb2
										{
											OFFSET -4.52789 0.00000 0.00000
											CHANNELS 3 Zrotation Xrotation Yrotation
											JOINT RightHandThumb3
											{
												OFFSET -2.46976 0.00000 0.00000
												CHANNELS 3 Zrotation Xrotation Yrotation
												End site
												{
													OFFSET 0.00000 0.00000 0.00000
												}
											}
										}
									}
									JOINT RightHandIndex1
									{
										OFFSET -14.26970 0.00000 2.88139
										CHANNELS 3 Zrotation Xrotation Yrotation
										JOINT RightHandIndex2
										{
											OFFSET -5.48836 0.00000 0.00000
											CHANNELS 3 Zrotation Xrotation Yrotation
											JOINT RightHandIndex3
											{
												OFFSET -3.01859 0.00000 0.00000
												CHANNELS 3 Zrotation Xrotation Yrotation
												End site
												{
													OFFSET 0.00000 0.00000 0.00000
												}
											}
										}
									}
									JOINT RightHandMiddle1
									{
										OFFSET -14.26970 0.00000 -0.09147
										CHANNELS 3 Zrotation Xrotation Yrotation
										JOINT RightHandMiddle2
										{
											OFFSET -6.17441 0.00000 0.00000
											CHANNELS 3 Zrotation Xrotation Yrotation
											JOINT RightHandMiddle3
											{
												OFFSET -3.56743 0.00000 0.00000
												CHANNELS 3 Zrotation Xrotation Yrotation
												End site
												{
													OFFSET 0.00000 0.00000 0.00000
												}
											}
										}
									}
									JOINT RightHandRing1
									{
										OFFSET -12.69180 0.00000 -3.06433
										CHANNELS 3 Zrotation Xrotation Yrotation
										JOINT RightHandRing2
										{
											OFFSET -5.62556 0.00000 0.00000
											CHANNELS 3 Zrotation Xrotation Yrotation
											JOINT RightHandRing3
											{
												OFFSET -3.56744 0.00000 0.00000
												CHANNELS 3 Zrotation Xrotation Yrotation
												End site
												{
													OFFSET 0.00000 0.00000 0.00000
												}
											}
										}
									}
									JOINT RightHandPinky1
									{
										OFFSET -11.11390 0.00000 -6.03719
										CHANNELS 3 Zrotation Xrotation Yrotation
										JOINT RightHandPinky2
										{
											OFFSET -4.52789 0.00000 0.00000
											CHANNELS 3 Zrotation Xrotation Yrotation
											JOINT RightHandPinky3
											{
												OFFSET -2.46976 0.00000 0.00000
												CHANNELS 3 Zrotation Xrotation Yrotation
												End site
												{
													OFFSET 0.00000 0.00000 0.00000
												}
											}
										}
									}
								}
							}
						}
					}
					JOINT LeftShoulder
					{
						OFFSET 0.01000 7.91373 5.19711
						CHANNELS 3 Zrotation Xrotation Yrotation
						JOINT LeftArm
						{
							OFFSET 18.41580 0.00000 0.00000
							CHANNELS 3 Zrotation Xrotation Yrotation
							JOINT LeftForeArm
							{
								OFFSET 29.11090 0.00000 0.00000
								CHANNELS 3 Zrotation Xrotation Yrotation
								JOINT LeftHand
								{
									OFFSET 24.65040 0.00000 0.00000
									CHANNELS 3 Zrotation Xrotation Yrotation
									JOINT LeftHandThumb1
									{
										OFFSET 5.35114 -0.85590 3.97906
										CHANNELS 3 Zrotation Xrotation Yrotation
										JOINT LeftHandThumb2
										{
											OFFSET 4.52789 0.00000 0.00000
											CHANNELS 3 Zrotation Xrotation Yrotation
											JOINT LeftHandThumb3
											{
												OFFSET 2.46977 0.00000 0.00000
												CHANNELS 3 Zrotation Xrotation Yrotation
												End site
												{
													OFFSET 0.00000 0.00000 0.00000
												}
											}
										}
									}
									JOINT LeftHandIndex1
									{
										OFFSET 14.26970 0.00000 2.88139
										CHANNELS 3 Zrotation Xrotation Yrotation
										JOINT LeftHandIndex2
										{
											OFFSET 5.48836 0.00000 0.00000
											CHANNELS 3 Zrotation Xrotation Yrotation
											JOINT LeftHandIndex3
											{
												OFFSET 3.01859 0.00000 0.00000
												CHANNELS 3 Zrotation Xrotation Yrotation
												End site
												{
													OFFSET 0.00000 0.00000 0.00000
												}
											}
										}
									}
									JOINT LeftHandMiddle1
									{
										OFFSET 14.26970 0.00000 -0.09147
										CHANNELS 3 Zrotation Xrotation Yrotation
										JOINT LeftHandMiddle2
										{
											OFFSET 6.17440 0.00000 0.00000
											CHANNELS 3 Zrotation Xrotation Yrotation
											JOINT LeftHandMiddle3
											{
												OFFSET 3.56744 0.00000 0.00000
												CHANNELS 3 Zrotation Xrotation Yrotation
												End site
												{
													OFFSET 0.00000 0.00000 0.00000
												}
											}
										}
									}
									JOINT LeftHandRing1
									{
										OFFSET 12.69180 0.00000 -3.06433
										CHANNELS 3 Zrotation Xrotation Yrotation
										JOINT LeftHandRing2
										{
											OFFSET 5.62556 0.00000 0.00000
											CHANNELS 3 Zrotation Xrotation Yrotation
											JOINT LeftHandRing3
											{
												OFFSET 3.56744 0.00000 0.00000
												CHANNELS 3 Zrotation Xrotation Yrotation
												End site
												{
													OFFSET 0.00000 0.00000 0.00000
												}
											}
										}
									}
									JOINT LeftHandPinky1
									{
										OFFSET 11.11390 0.00000 -6.03719
										CHANNELS 3 Zrotation Xrotation Yrotation
										JOINT LeftHandPinky2
										{
											OFFSET 4.52789 0.00000 0.00000
											CHANNELS 3 Zrotation Xrotation Yrotation
											JOINT LeftHandPinky3
											{
												OFFSET 2.46976 0.00000 0.00000
												CHANNELS 3 Zrotation Xrotation Yrotation
												End site
												{
													OFFSET 0.00000 0.00000 0.00000
												}
											}
										}
									}
								}
							}
						}
					}
					JOINT pCube4
					{
						OFFSET 0.00000 10.91090 1.10792
						CHANNELS 3 Zrotation Xrotation Yrotation
						End site
						{
							OFFSET 0.00000 0.00000 0.00000
						}
					}
				}
			}
		}
	}
	JOINT RightUpLeg
	{
		OFFSET -9.98441 0.00000 0.00000
		CHANNELS 3 Zrotation Xrotation Yrotation
		JOINT RightLeg
		{
			OFFSET 0.00000 -42.11790 0.00000
			CHANNELS 3 Zrotation Xrotation Yrotation
			JOINT RightFoot
			{
				OFFSET 0.00000 -45.00020 -0.00001
				CHANNELS 3 Zrotation Xrotation Yrotation
				JOINT RightForeFoot
				{
					OFFSET 0.00000 -3.74820 0.00000
					CHANNELS 3 Zrotation Xrotation Yrotation
					JOINT RightToeBase
					{
						OFFSET 0.00000 0.06325 14.43120
						CHANNELS 3 Zrotation Xrotation Yrotation
						End site
						{
							OFFSET 0.00000 0.00000 0.00000
						}
					}
				}
			}
		}
	}
	JOINT LeftUpLeg
	{
		OFFSET 9.98441 0.00000 0.00000
		CHANNELS 3 Zrotation Xrotation Yrotation
		JOINT LeftLeg
		{
			OFFSET 0.00000 -42.11800 0.00000
			CHANNELS 3 Zrotation Xrotation Yrotation
			JOINT LeftFoot
			{
				OFFSET 0.00000 -45.00070 0.00000
				CHANNELS 3 Zrotation Xrotation Yrotation
				JOINT LeftForeFoot
				{
					OFFSET 0.00000 -3.74824 0.00000
					CHANNELS 3 Zrotation Xrotation Yrotation
					JOINT LeftToeBase
					{
						OFFSET 0.00000 0.06325 14.43110
						CHANNELS 3 Zrotation Xrotation Yrotation
						End site
						{
							OFFSET 0.00000 0.00000 0.00000
						}
					}
				}
			}
		}
	}
}
MOTION
Frames: 4
Frame Time: 0.050000
-0.04391227649215921 0.041256070734013744 0.00716963799516949 -0.04638166304570623 0.007493160887697019 -0.026735115781033148 1.388838332968334 2.3717383218407977 -1.453446018710471 -0.5122103344502104 3.9647704900339167 0.31055210921257703 -0.6859323240504013 -1.443124123042946 1.8629159695565796 -0.8382563655074159 -0.6587919051687301 -0.1523580642440574 0.027548708497186745 12.460581995778027 -0.76592074972885 0.4838805035415479 -1.0883305221627637 -2.9968688084556168 0.87668735215136 -17.124361943546102 -0.25989589676701613 -4.542157522910734 1.903964588736041 -16.159774763561764 72.48079803404958 15.244617532567714 6.893450315063128 0.39185008331679816 1.4959848952605985 65.50389958804669 27.349502880256228 -0.318364695277458 -5.688623278556731 4.570455834836788 -0.14351611354332863 -1.610842298318013 0.03644700223512308 0.02281686832367541 -56.28243069467315 0.023741641008777386 -0.04131124196442327 -56.224747054234996 -38.75677278837026 -0.01375675573763135 0.03281911255464348 -0.012920672835486285 -0.0075797282259943075 -0.012708827236100426 0.02433701028645415 0.009078694486159777 -0.026223270846051278 -36.72001904802136 -0.03123899389664039 -0.04740393540987533 0.0006261286208625415 -0.043435024830003534 0.006494208495621815 0.04716320115577762 -0.037484109405767796 -0.024461199922640956 -19.76184697644441 0.009951874112629981 0.03271675271780761 0.04804716683702395 0.01052799201019365 -0.03656295999704751 -0.00916226971979214 0.008834005171354655 0.000630242534479325 24.070190849066037 -0.016329435472721865 -0.03542199935705434 28.830343103941427 0.03055899935092408 -0.006856773902359524 28.902258418715167 -0.013350896091531549 -0.018550091227233965 4.267204693345095 1.332700035761868 14.936200030545692 -79.1386254224847 22.149487357915394 -2.044868048055849 9.415415454324513 3.9304897693928766 -36.806950562076985 -28.569675891382886 9.263146550732026 -5.166538774057347 -0.5179891515403616 0.03293038650569791 -8.147200335613858 0.04840229529242373 -0.04092990807285479 44.56426764903712 -0.033239677348684896 0.009671989153740854 44.593793514488745 12.417840314033702 -0.021120116360695367 -0.007732647525366949 -0.01027949796440266 0.0009943528938927862 0.029046504982504166 -0.04875109849159425 0.04668634425189319 0.031595280649388414 11.087165670043793 -0.017260014220849836 -0.032439940520381114 0.021303135532631218 -0.008156987937513642 0.03641526865407341 0.0003364479066083969 -0.016766985630672793 0.01598819560403727 4.746811270827388 -0.026994799567566397 0.0031699030713146495 0.0023096738981396186 0.025714868923493967 0.043889958986841615 0.01417993172284502 0.030730481593832067 0.0262044960468013 -5.58706448984569 -0.008345306013574643 -0.03686071339529758 -6.708169836513702 -0.03840963138998166 -0.01758029247161771 -6.756816483160821 0.028084205081410088 0.049592443806572246 0.024604542618023917 0.04549431194260768 -0.04139893908069739 8.074227265403314 3.492257889396234 -19.21167055971693 -0.04602863364076481 10.431065492111294 0.012831878243111052 -5.619397823187179 -15.644118601479194 3.1628597971276275 0.04010506965969336 0.042093993984185736 -0.012910264619962345 0.019684847107604694 4.671036045840655 0.013617359409379885 12.507204398784038 -8.284495317026034 6.845712559915549 0.027296067257622757 46.395078606583475 0.02345387077022466 -4.301400221646232 -14.704749569551208 -3.823014723329049 0.005398155906671131 0.008190522063538642 0.0011502933583313647 0.029528364931729525 -10.714583015863225 -0.009495274782693842 
-0.03243729990377238 0.01658722234967624 0.011601907835884974 0.02730559953448953 0.003994891747898266 0.04803169139635693 1.7627845079336235 2.6040729483365967 -1.604475557781074 -0.5810215531279396 3.883064383583975 0.37802095832536997 -0.6638623577235889 -1.422294108469896 1.7170433694130804 -0.7895871215862209 -0.6039391725203976 -0.24474425142521192 0.0583527457161913 12.28553905050443 -0.9198341243193633 0.5265336615276466 -1.0704597278143015 -2.9747191052652844 0.9637802973552548 -17.120266881316905 -0.27723165695917557 -5.118543741378209 2.0871367378005905 -16.39425037356617 74.38113007721229 13.945216712541836 6.027310813826895 -1.6632043169527522 0.8282992183754448 61.84538849497668 26.991774103161415 -0.3140356685660393 -5.651133131002067 4.511663242028435 -0.15223262076377192 -1.5872232530176442 -0.002826615616786597 0.025416815131495348 -56.24812544699657 0.008321692722727531 0.028914536689724074 -56.25113006454897 -38.725285972362244 0.0308925951164636 0.0020270279477510532 0.035547306949496434 0.013130444816595614 -0.0295079974577509 -0.005145796015573223 -0.026953984869866505 0.007142345715591587 -36.708628144301365 0.020534247830388555 0.008711312816610374 0.0489182476084279 -0.01655999949805982 -0.0013422311255776042 -0.018318632046889556 -0.019062074244847262 0.04886354214716595 -19.76660718584479 -0.012439254868549823 0.009072398874831668 0.004882402918148588 -0.04874050148343756 0.02092064976493934 -0.0240505857945596 0.03478733088468876 0.005542487879750002 24.099666072879522 0.04157552580845482 -0.025617906766584625 28.848920977294814 -0.048397789943667384 -0.008354118566103273 28.856301261831895 -0.04406265976112768 -0.04683567337387664 4.757187772075862 1.4957941120317146 14.874774839780878 -79.34251895114306 21.796142097862617 -2.61972395493982 9.439044346279266 3.478778818539911 -36.1878405705175 -27.681019180708017 8.099208619347136 -4.024801577159102 -0.49283652907482234 0.11368594419922354 -8.07529356285853 -0.0440475947762789 -0.031974885826070686 44.5757400196258 -0.007292791556447028 0.041413103027125635 44.61243811095914 12.487069376073851 -0.012250531691420203 -0.004260745460295008 0.04392651966934134 0.03570838394482806 0.013721836040281822 -0.02049308945078914 0.04773147168140206 0.04641016563110169 11.118488152877642 -0.003839066259694136 0.02351878395315895 0.04870044919820061 0.02365361179696889 -0.02042905461254035 -0.024977903121182896 -0.03272307412202121 0.033691129440172225 4.750130580418544 0.01508498609584942 -0.03381689437251745 0.014064725438199562 -0.04693424516699571 -0.001685454399521568 -0.015975411514563286 0.013666272730377906 0.009829586074454376 -5.571756301043506 0.0020423384425648436 -0.0016004187129129183 -6.724689022860023 -0.002943332201456926 -0.004701642448530435 -6.728273039882944 -0.02032964709401035 0.019996727816749583 -0.010924436569692643 -0.026237611335460466 -0.020260276686614197 8.025669728141764 3.491313469001293 -19.26231138433777 0.04606656612445996 10.392398805867643 0.014525779613740929 -5.6253066655296635 -15.671640607090819 3.15961684004282 0.041854544845662846 -0.030781871772059027 0.009433403528417183 -0.008554973744322375 4.70815328549659 0.01670226248216189 12.44511830215204 -8.221680687790093 6.856827307660562 0.023715596775553988 46.36182769804703 -0.039775509664510655 -4.279000719006344 -14.713593524096217 -3.8145631380470415 0.01061451297555696 -0.01830974772823253 0.008653096965100865 0.020449768454259477 -10.794596379392438 0.010939043820155219 
0.025789056134185074 -0.015162791787751623 0.02427174628556123 -0.04081583126709472 0.03214584350136831 -0.04452939591541415 2.345153605160205 2.652547919702064 -1.7036668953414142 -0.5541647070954892 3.829796699114424 0.36168312786635143 -0.6546189611822449 -1.3917384032573858 1.6460074457246407 -0.7584640070634054 -0.5671826294468767 -0.2100879079525668 0.0649944430107999 12.334628855850886 -0.9981240579959394 0.5072058171095095 -1.0077291218797 -3.079152432354673 1.085716540169183 -17.140153184942363 -0.33471427739277776 -5.850040254330976 2.281316822913868 -16.80696561228746 76.19456802032825 13.056023579748391 5.580285833715395 -3.6015698489606995 0.22824736156936748 59.560495739819885 26.63037440617022 -0.29450704215507556 -5.754302482650663 4.557395724153547 -0.09602657107199061 -1.6371259206582744 0.026411484126887506 -0.0025992679409717937 -56.237764622027996 -0.030179173852282998 -0.016790341885046373 -56.2030651246222 -38.72691392313763 0.009686119756887712 0.009206603266473051 -0.012623579916768955 -0.019858051056945478 0.03329727411845555 -0.0013994718000937027 -0.023452270731809634 0.005741660083333298 -36.67321890849833 -0.01247549237835689 -0.01659169444204691 0.01634370848813027 -0.016822575316643076 0.015331838800415672 0.04710074303904688 -0.02090920444993344 -0.009740158767357534 -19.79819918414695 0.031547547663061504 0.04317845489594771 -0.015186777617753847 0.029557263379146437 0.030060654271849823 0.0015850366954563045 -0.006488162750298629 -0.03944958527359786 24.062926265016173 -0.0003822717315602433 -0.03734686106021243 28.849702325726103 0.04817814240779382 0.027341910001548137 28.815484145751043 -0.04690659421378985 0.03347328535299846 5.3973858074303305 1.5917015047670036 14.983218471921239 -79.63366823192193 21.200112147719388 -3.211401357056786 9.336167221353584 3.6374202122385118 -35.76625966200449 -27.058617472757646 7.0787082915982875 -3.153425427350231 -0.44394140482708844 0.04103078779262134 -8.104558753691673 0.02093026091917676 0.015236466030092393 44.58068170031891 -0.010218858330572945 0.019324408290508417 44.608013813322735 12.47824365275559 0.00021024727645076362 -0.037993153808446006 -0.012364474373277805 0.01189448097132491 0.026381278546649088 0.004301332461516992 -0.008965003220302963 -0.028065284775729345 11.122269207439592 0.012128917597632656 0.02963682489591191 -0.009515312789289172 -0.013880307595061658 -0.005149162463043712 0.008985785075209838 0.01982396477599319 0.031183994889241118 4.7510509594382535 -0.006337315259433978 -0.006970237946177425 0.032288015102227285 -0.041307823763255175 -0.0005810118626695499 -0.004332726744647628 -0.0033376497651430846 -0.042597974606311116 -5.620416267330574 -0.0028321528233367856 0.04281883641415393 -6.738093731305718 0.007752049473602628 -0.027032208207430724 -6.728047913663368 -0.025632706191228646 0.025595769640634744 -0.0441148963005042 0.02250585000334104 -0.014776657160249581 8.03656196521579 3.4656646984033084 -19.197644601340443 -0.04394918746484772 10.41579774222292 0.05340076162959603 -5.631793060847081 -15.666788333053658 3.158288875503297 -0.025230698967182816 -0.04841376185058702 -0.03346588864731941 0.022211197391942373 4.739022583033573 0.000314296269239571 12.488396042077417 -8.200656898192637 6.862478655486401 -0.007955080838909846 46.371829358790414 0.02449159912747624 -4.319707119410003 -14.790705123831346 -3.8266075638654855 0.00047317122712444234 -0.0009661375662524802 -0.049706652870545064 0.016772461101299804 -10.775722562596933 0.04333296596760479 
-0.03180871483395265 0.022176464413901795 -0.04203381670710254 -0.040929913169832445 0.0106750486921366 -0.019756127670321245 2.9079404881339173 2.7587879662535695 -1.8006073423002424 -0.5609671749219225 3.7504174700644484 0.3793637620500728 -0.7028614216804591 -1.3626974675164034 1.5843600804790066 -0.7278845425888814 -0.5548615939892437 -0.2161106989330516 0.1829178956171716 12.431274253556412 -1.175034999679383 0.5615810970883872 -0.954140159633844 -3.185610088879375 1.101739173248022 -17.222126823865384 -0.31271216467362856 -6.606500721219094 2.477800971425113 -17.10879082299553 77.72306450605495 12.447905107224198 5.1516556438804635 -5.752564029428978 0.22922375626471703 57.47032006841099 26.18475455670468 -0.2481053278075598 -5.627552764733923 4.50778962506954 -0.09038629095684947 -1.585523980096556 -0.040053519850052906 -0.005609451846348262 -56.26284287609699 0.02930298166811869 -0.00164015520264116 -56.2689147117178 -38.72701189130279 -0.039625718700683196 0.0037613776702907697 0.006206594394322622 0.03863341066709315 0.01576774021098043 -0.000936247477967739 0.006694386400225862 0.013490624567665966 -36.726040854304394 0.02903802340421483 -0.0057695203825395384 0.0040831148468268574 -0.012842438255725354 -0.025894695479693357 0.032432199476084195 -0.035270142391792686 0.04616147364693694 -19.771391182081114 0.008736986679162343 0.03535736179983531 -0.005790144189865028 -0.014241114941907851 0.007388575580754931 -0.00455807926284402 0.03614412298392806 -0.011873820019666567 24.007729964681094 0.04986533819008962 0.001808795811413953 28.84844596010038 -0.002511092551004123 -0.04635248478786927 28.904943776070706 0.0229653144779784 0.03127209963062754 5.976125520020732 1.7049974455086616 15.138484930639773 -79.75941424987825 20.70083095156189 -3.689379806514134 9.211810635271716 4.186607721056153 -35.76171576352131 -26.467264489742703 6.121847376380228 -2.3843302750958126 -0.4579362813782658 0.06476942526324181 -8.082636653635651 0.02509851586041972 -0.004441838598341062 44.529574525400015 0.04496304170502346 0.0018328844570934819 44.55380304000635 12.452722036781736 0.024630992451307593 -0.023268258161156824 -0.023497764442978915 -0.013165651053170184 0.0019953440067445906 -0.012902353101997251 0.011799028870090449 -0.023834252398141582 11.1521120088646 -0.019308818760848605 0.020753449610057366 0.012882062463117277 -0.014490171676628427 0.049730225722907376 -0.04140354839636509 -0.03953807883291379 -0.049514788238427594 4.806564948607222 0.03206037885665485 -0.03222989242012971 -0.00029522274926676537 0.016982375484620404 -0.025805833023250402 -0.033985637905672654 0.02370612468281216 0.011053977183382488 -5.634053306396017 0.04783414959606434 -0.033852990804567294 -6.686609561130858 0.04983533370105995 -0.00854669835870925 -6.678299035636778 0.035281513243328295 -0.03905453496549268 0.013648364593637228 0.005435729902548054 -0.027254619350704157 8.088381305325061 3.4831837016469613 -19.21768872522148 0.03288211550533538 10.428417193712514 0.034781914990347884 -5.669711230517023 -15.631343036019759 3.1588581558845035 0.008177345879445803 -0.047406646482584025 -0.01708507295918631 0.02336848234105733 4.66913995677907 -0.009875994912782812 12.450107963984989 -8.267981581326108 6.918182100786604 0.0009494668850493178 46.33997567908726 -0.015898092465680025 -4.314765153816045 -14.778502076878025 -3.793223989159707 -0.04149867483513076 0.0242757474952215 0.0069202311161561435 -0.00019644874567233657 -10.75852449861976 0.0010804185423677194 
